<svg width="97" height="16" viewBox="0 0 97 16" fill="none" xmlns="http://www.w3.org/2000/svg">
<path fill-rule="evenodd" clip-rule="evenodd" d="M9.18481 0.579C8.86381 -0.193 7.76981 -0.193 7.44881 0.579L5.61881 4.98L0.865811 5.361C0.0328114 5.428 -0.305189 6.468 0.329811 7.012L3.94981 10.114L2.84381 14.751C2.64981 15.564 3.53481 16.207 4.24881 15.771L8.31681 13.286L12.3858 15.771C13.0988 16.207 13.9838 15.564 13.7898 14.751L12.6838 10.114L16.3038 7.012C16.9388 6.468 16.6008 5.428 15.7678 5.362L11.0158 4.98L9.18481 0.579Z" fill="#FF3C00"/>
<path fill-rule="evenodd" clip-rule="evenodd" d="M29.1848 0.579C28.8638 -0.193 27.7698 -0.193 27.4488 0.579L25.6188 4.98L20.8658 5.361C20.0328 5.428 19.6948 6.468 20.3298 7.012L23.9498 10.114L22.8438 14.751C22.6498 15.564 23.5348 16.207 24.2488 15.771L28.3168 13.286L32.3858 15.771C33.0988 16.207 33.9838 15.564 33.7898 14.751L32.6838 10.114L36.3038 7.012C36.9388 6.468 36.6008 5.428 35.7678 5.362L31.0158 4.98L29.1848 0.579Z" fill="#FF3C00"/>
<path fill-rule="evenodd" clip-rule="evenodd" d="M49.1848 0.579C48.8638 -0.193 47.7698 -0.193 47.4488 0.579L45.6188 4.98L40.8658 5.361C40.0328 5.428 39.6948 6.468 40.3298 7.012L43.9498 10.114L42.8438 14.751C42.6498 15.564 43.5348 16.207 44.2488 15.771L48.3168 13.286L52.3858 15.771C53.0988 16.207 53.9838 15.564 53.7898 14.751L52.6838 10.114L56.3038 7.012C56.9388 6.468 56.6008 5.428 55.7678 5.362L51.0158 4.98L49.1848 0.579Z" fill="#FF3C00"/>
<path fill-rule="evenodd" clip-rule="evenodd" d="M69.1848 0.579C68.8638 -0.193 67.7698 -0.193 67.4488 0.579L65.6188 4.98L60.8658 5.361C60.0328 5.428 59.6948 6.468 60.3298 7.012L63.9498 10.114L62.8438 14.751C62.6498 15.564 63.5348 16.207 64.2488 15.771L68.3168 13.286L72.3858 15.771C73.0988 16.207 73.9838 15.564 73.7898 14.751L72.6838 10.114L76.3038 7.012C76.9388 6.468 76.6008 5.428 75.7678 5.362L71.0158 4.98L69.1848 0.579Z" fill="#FF3C00"/>
<path fill-rule="evenodd" clip-rule="evenodd" d="M89.1848 0.579C88.8638 -0.193 87.7698 -0.193 87.4488 0.579L85.6188 4.98L80.8658 5.361C80.0328 5.428 79.6948 6.468 80.3298 7.012L83.9498 10.114L82.8438 14.751C82.6498 15.564 83.5348 16.207 84.2488 15.771L88.3168 13.286L92.3858 15.771C93.0988 16.207 93.9838 15.564 93.7898 14.751L92.6838 10.114L96.3038 7.012C96.9388 6.468 96.6008 5.428 95.7678 5.362L91.0158 4.98L89.1848 0.579Z" fill="#FF3C00"/>
</svg>
