<svg width="89" height="24" viewBox="0 0 89 24" fill="none" xmlns="http://www.w3.org/2000/svg">
<path d="M3.21728 23.016C2.78528 23.016 2.32128 22.96 1.82528 22.848C1.32928 22.736 0.929282 22.592 0.625282 22.416L1.24928 19.392C1.85728 19.888 2.46528 20.136 3.07328 20.136C3.48928 20.136 3.82528 20.032 4.08128 19.824C4.35328 19.632 4.59328 19.288 4.80128 18.792L5.28128 17.544L0.337282 4.944H4.36928L6.36128 10.152C6.58528 10.744 6.77728 11.352 6.93728 11.976C7.11328 12.6 7.21728 13 7.24928 13.176C7.29728 13 7.41728 12.616 7.60928 12.024C7.80128 11.416 8.00928 10.816 8.23328 10.224L9.40928 7.272C9.69728 6.552 9.90528 5.776 10.0333 4.944H13.5133L7.82528 19.416C7.29728 20.712 6.67328 21.632 5.95328 22.176C5.24928 22.736 4.33728 23.016 3.21728 23.016ZM17.8526 13.152C17.8526 13.92 18.0126 14.504 18.3326 14.904C18.6686 15.288 19.1406 15.48 19.7486 15.48C20.3246 15.48 20.8446 15.28 21.3086 14.88C21.7886 14.464 22.1646 13.896 22.4366 13.176C22.7086 12.44 22.8446 11.632 22.8446 10.752V4.944H26.5406V14.88C26.5406 15.952 26.5966 16.992 26.7086 18H22.8446V14.952C22.4286 15.976 21.8286 16.8 21.0446 17.424C20.2766 18.032 19.4046 18.336 18.4286 18.336C17.0046 18.336 15.9326 17.896 15.2126 17.016C14.5086 16.12 14.1566 15.008 14.1566 13.68V4.944H17.8526V13.152ZM28.5382 0.839999H32.2582V10.32L35.4022 6.912C35.6582 6.656 35.9142 6.352 36.1702 6C36.4262 5.632 36.6342 5.28 36.7942 4.944H40.8022L36.1942 10.032L41.2582 18H36.8182L33.6022 12.768L32.2582 14.184V18H28.5382V0.839999ZM45.252 13.152C45.252 13.92 45.412 14.504 45.732 14.904C46.068 15.288 46.54 15.48 47.148 15.48C47.724 15.48 48.244 15.28 48.708 14.88C49.188 14.464 49.564 13.896 49.836 13.176C50.108 12.44 50.244 11.632 50.244 10.752V4.944H53.94V14.88C53.94 15.952 53.996 16.992 54.108 18H50.244V14.952C49.828 15.976 49.228 16.8 48.444 17.424C47.676 18.032 46.804 18.336 45.828 18.336C44.404 18.336 43.332 17.896 42.612 17.016C41.908 16.12 41.556 15.008 41.556 13.68V4.944H45.252V13.152ZM71.5616 9.888C71.5616 9.152 71.4096 8.6 71.1056 8.232C70.8016 7.848 70.4096 7.656 69.9296 7.656C69.1296 7.656 68.5216 8.08 68.1056 8.928C67.6896 9.76 67.4816 10.864 67.4816 12.24V18H63.7376V9.888C63.7376 9.152 63.5856 8.6 63.2816 8.232C62.9936 7.848 62.6016 7.656 62.1056 7.656C61.3056 7.656 60.6976 8.08 60.2816 8.928C59.8656 9.76 59.6576 10.864 59.6576 12.24V18H55.9376V4.944H59.6576V7.608C60.0256 6.68 60.5376 5.952 61.1936 5.424C61.8656 4.88 62.6416 4.608 63.5216 4.608C64.6096 4.608 65.4576 4.896 66.0656 5.472C66.6896 6.048 67.0976 6.824 67.2896 7.8C67.6736 6.824 68.2096 6.048 68.8976 5.472C69.6016 4.896 70.4096 4.608 71.3216 4.608C72.6976 4.608 73.6976 5.056 74.3216 5.952C74.9456 6.832 75.2576 7.952 75.2576 9.312V14.88C75.2576 15.952 75.3136 16.992 75.4256 18H71.5616V9.888ZM78.3954 23.016C77.9634 23.016 77.4994 22.96 77.0034 22.848C76.5074 22.736 76.1074 22.592 75.8034 22.416L76.4274 19.392C77.0354 19.888 77.6434 20.136 78.2514 20.136C78.6674 20.136 79.0034 20.032 79.2594 19.824C79.5314 19.632 79.7714 19.288 79.9794 18.792L80.4594 17.544L75.5154 4.944H79.5474L81.5394 10.152C81.7634 10.744 81.9554 11.352 82.1154 11.976C82.2914 12.6 82.3954 13 82.4274 13.176C82.4754 13 82.5954 12.616 82.7874 12.024C82.9794 11.416 83.1874 10.816 83.4114 10.224L84.5874 7.272C84.8754 6.552 85.0834 5.776 85.2114 4.944H88.6914L83.0034 19.416C82.4754 20.712 81.8514 21.632 81.1314 22.176C80.4274 22.736 79.5154 23.016 78.3954 23.016Z" fill="#1A1A1A"/>
</svg>
